<svg xmlns="http://www.w3.org/2000/svg" viewBox="0 0 1210 1618" width="1210" height="1618"><defs><style type="text/css">@import url('https://fonts.googleapis.com/css?family=Roboto+Mono:400|Roboto:400,&amp;subset=cyrillic,cyrillic-ext,greek,greek-ext,latin-ext')</style></defs><rect x="0" y="0" width="1210" height="1618" fill="#ffffff"/><text x="605" y="109" text-anchor="middle" font-size="64px" font-family="Roboto,sans-serif" fill="#52565f">Perfume chooser</text><text x="1165" y="1559" text-anchor="end" font-size="14px" font-family="Roboto,sans-serif" color="#52565f">15 June 2021</text><g transform="translate(45,213)"><g><g><g transform="translate(526, 14)"><rect x="0" y="0" rx="2" ry="2" width="180" height="228" fill="#ffffff"/><g><g><g transform="translate( 0, 0 )"><svg xmlns="http://www.w3.org/2000/svg" xmlns:xlink="http://www.w3.org/1999/xlink" width="180" height="185" viewBox="0 0 180 185">
  <defs>
    <rect id="ty5t07w8j0a-main-a" width="160" height="82" rx="2"/>
  </defs>
  <g fill="none" fill-rule="evenodd">
    <path fill="#58A8F7" d="M0,2.99971296 C0,1.34301724 1.34537458,0 2.99263929,0 L177.007361,0 C178.66015,0 180,1.34382565 180,2.99971296 L180,185 L0,185 L0,2.99971296 Z" opacity=".097"/>
    <g transform="translate(10 26)">
      <rect width="160" height="82" fill="#58A8F7" opacity=".197" rx="2"/>
      <mask id="ty5t07w8j0a-main-b" fill="#fff">
        <use xlink:href="#ty5t07w8j0a-main-a"/>
      </mask>
      <use fill="#58A8F7" opacity="0" xlink:href="#ty5t07w8j0a-main-a"/>
      <path fill="#58A8F7" d="M123.544554,38 C147.292079,38 158.861386,56.7865169 182,82 C163.123762,82 82.3134379,82 59,82 C79.0940594,61.2359551 99.7970297,38 123.544554,38 Z" mask="url(#ty5t07w8j0a-main-b)" opacity=".197"/>
      <path fill="#0D87FF" d="M44.5,31 C69.8826643,31 86.3055556,55.3181901 109,82 C79.2231422,82 7.11330049,82 -20,82 C1.92139189,55.3181901 19.1173357,31 44.5,31 Z" mask="url(#ty5t07w8j0a-main-b)" opacity=".198"/>
      <circle cx="87" cy="22" r="9" fill="#58A8F7" mask="url(#ty5t07w8j0a-main-b)" opacity=".499"/>
    </g>
    <g transform="translate(26 118)">
      <circle cx="7.5" cy="7.5" r="7.5" fill="#0D87FF" opacity=".499"/>
      <polygon fill="#FFF" points="7.5 9.75 4.855 11.141 5.36 8.195 3.22 6.109 6.177 5.68 7.5 3 8.823 5.68 11.78 6.109 9.64 8.195 10.145 11.141"/>
    </g>
    <g transform="translate(140 118)">
      <circle cx="7.5" cy="7.5" r="7.5" fill="#0D87FF" opacity=".499"/>
      <polygon fill="#FFF" points="7.5 9.75 4.855 11.141 5.36 8.195 3.22 6.109 6.177 5.68 7.5 3 8.823 5.68 11.78 6.109 9.64 8.195 10.145 11.141"/>
    </g>
    <g transform="translate(83 118)">
      <circle cx="7.5" cy="7.5" r="7.5" fill="#0D87FF" opacity=".499"/>
      <polygon fill="#FFF" points="7.5 9.75 4.855 11.141 5.36 8.195 3.22 6.109 6.177 5.68 7.5 3 8.823 5.68 11.78 6.109 9.64 8.195 10.145 11.141"/>
    </g>
    <g fill="#58A8F7" transform="translate(10 139)">
      <polygon points="0 0 26 0 26 5 0 5" opacity=".499" transform="translate(10)"/>
      <polygon points="0 0 46 0 46 3 0 3" opacity=".197" transform="translate(0 17)"/>
      <polygon points="0 0 46 0 46 3 0 3" opacity=".197" transform="translate(0 10)"/>
      <polygon points="0 0 26 0 26 3 0 3" opacity=".197" transform="translate(10 24)"/>
    </g>
    <g fill="#58A8F7" transform="translate(124 139)">
      <polygon points="0 0 26 0 26 5 0 5" opacity=".499" transform="translate(10)"/>
      <polygon points="0 0 46 0 46 3 0 3" opacity=".197" transform="translate(0 17)"/>
      <polygon points="0 0 46 0 46 3 0 3" opacity=".197" transform="translate(0 10)"/>
      <polygon points="0 0 26 0 26 3 0 3" opacity=".197" transform="translate(10 24)"/>
    </g>
    <g fill="#58A8F7" transform="translate(67 139)">
      <polygon points="0 0 26 0 26 5 0 5" opacity=".499" transform="translate(10)"/>
      <polygon points="0 0 46 0 46 3 0 3" opacity=".197" transform="translate(0 17)"/>
      <polygon points="0 0 46 0 46 3 0 3" opacity=".197" transform="translate(0 10)"/>
      <polygon points="0 0 26 0 26 3 0 3" opacity=".197" transform="translate(10 24)"/>
    </g>
    <path fill="#58A8F7" d="M0,3.00947762 C0,1.34738902 1.34537458,0 2.99263929,0 L177.007361,0 C178.66015,0 180,1.33663106 180,3.00947762 L180,16 L0,16 L0,3.00947762 Z" opacity=".197"/>
    <path fill="#0D87FF" d="M2.5,5 C1.11928813,5 0,3.88071187 0,2.5 C0,1.11928813 1.11928813,0 2.5,0 C3.88071187,0 5,1.11928813 5,2.5 C5,3.88071187 3.88071187,5 2.5,5 Z M10.5,5 C9.11928813,5 8,3.88071187 8,2.5 C8,1.11928813 9.11928813,0 10.5,0 C11.8807119,0 13,1.11928813 13,2.5 C13,3.88071187 11.8807119,5 10.5,5 Z M18.5,5 C17.1192881,5 16,3.88071187 16,2.5 C16,1.11928813 17.1192881,0 18.5,0 C19.8807119,0 21,1.11928813 21,2.5 C21,3.88071187 19.8807119,5 18.5,5 Z" opacity=".499" transform="translate(5 6)"/>
  </g>
</svg></g></g></g><rect x="-1" y="-1" rx="3" ry="3" width="182" height="230" fill="none" stroke="#A2CEF9" stroke-width="2"/><g transform="translate(0,206)"><g><text x="90" y="4" text-anchor="middle" font-family="Roboto,sans-serif" font-size="14px" fill="#52565f">New Page</text></g></g></g><g transform="translate(918, 814)"><rect x="0" y="0" rx="2" ry="2" width="180" height="228" fill="#ffffff"/><g><g><g transform="translate( 0, 0 )"><svg xmlns="http://www.w3.org/2000/svg" xmlns:xlink="http://www.w3.org/1999/xlink" width="180" height="185" viewBox="0 0 180 185">
  <defs>
    <rect id="f2ajxgwx73v-item-a" width="80" height="115" rx="2"/>
    <path id="f2ajxgwx73v-item-c" d="M0,1.99508929 C0,0.893231902 0.897026226,0 2.00494659,0 L21.9950534,0 C23.1023548,0 24,0.892622799 24,1.99508929 L24,16.0049107 C24,17.1067681 23.1029738,18 21.9950534,18 L2.00494659,18 C0.897645164,18 0,17.1073772 0,16.0049107 L0,1.99508929 Z"/>
    <path id="f2ajxgwx73v-item-e" d="M0,1.99508929 C0,0.893231902 0.897026226,0 2.00494659,0 L21.9950534,0 C23.1023548,0 24,0.892622799 24,1.99508929 L24,16.0049107 C24,17.1067681 23.1029738,18 21.9950534,18 L2.00494659,18 C0.897645164,18 0,17.1073772 0,16.0049107 L0,1.99508929 Z"/>
    <path id="f2ajxgwx73v-item-g" d="M0,1.99508929 C0,0.893231902 0.897026226,0 2.00494659,0 L21.9950534,0 C23.1023548,0 24,0.892622799 24,1.99508929 L24,16.0049107 C24,17.1067681 23.1029738,18 21.9950534,18 L2.00494659,18 C0.897645164,18 0,17.1073772 0,16.0049107 L0,1.99508929 Z"/>
  </defs>
  <g fill="none" fill-rule="evenodd">
    <path fill="#58A8F7" d="M0,2.99971296 C0,1.34301724 1.34537458,0 2.99263929,0 L177.007361,0 C178.66015,0 180,1.34382565 180,2.99971296 L180,185 L0,185 L0,2.99971296 Z" opacity=".097"/>
    <g transform="translate(10 26)">
      <rect width="80" height="115" fill="#58A8F7" opacity=".197" rx="2"/>
      <mask id="f2ajxgwx73v-item-b" fill="#fff">
        <use xlink:href="#f2ajxgwx73v-item-a"/>
      </mask>
      <use fill="#58A8F7" opacity="0" xlink:href="#f2ajxgwx73v-item-a"/>
      <path fill="#58A8F7" d="M62.7821782,58 C76.6831683,58 83.4554455,82.3370787 97,115 C85.950495,115 38.6468905,115 25,115 C36.7623762,88.1011236 48.8811881,58 62.7821782,58 Z" mask="url(#f2ajxgwx73v-item-b)" opacity=".197"/>
      <path fill="#0D87FF" d="M18,47 C33.7411872,47 43.9259259,79.4242535 58,115 C39.5337316,115 -5.18555008,115 -22,115 C-8.40533836,79.4242535 2.25881284,47 18,47 Z" mask="url(#f2ajxgwx73v-item-b)" opacity=".198"/>
      <circle cx="44" cy="31" r="7" fill="#58A8F7" mask="url(#f2ajxgwx73v-item-b)" opacity=".499"/>
    </g>
    <g transform="translate(10 151)">
      <path fill="#58A8F7" d="M0,1.99508929 C0,0.893231902 0.897026226,0 2.00494659,0 L21.9950534,0 C23.1023548,0 24,0.892622799 24,1.99508929 L24,16.0049107 C24,17.1067681 23.1029738,18 21.9950534,18 L2.00494659,18 C0.897645164,18 0,17.1073772 0,16.0049107 L0,1.99508929 Z" opacity=".197"/>
      <mask id="f2ajxgwx73v-item-d" fill="#fff">
        <use xlink:href="#f2ajxgwx73v-item-c"/>
      </mask>
      <path fill="#58A8F7" d="M20.5714286,9.81818182 C25.2050919,9.81818182 28.0565771,13.3115424 32.5714286,18 C28.8882603,18 13.1203921,18 8.57142857,18 C12.4922207,14.1389173 15.9377652,9.81818182 20.5714286,9.81818182 Z" mask="url(#f2ajxgwx73v-item-d)" opacity=".197"/>
      <path fill="#0D87FF" d="M3.42857143,8.18181818 C8.31958315,8.18181818 11.9126984,12.8633949 16.2857143,18 C10.5479809,18 -3.34693878,18 -8.57142857,18 C-4.34737299,12.8633949 -1.4624403,8.18181818 3.42857143,8.18181818 Z" mask="url(#f2ajxgwx73v-item-d)" opacity=".198"/>
      <circle cx="12.857" cy="5.727" r="3" fill="#58A8F7" mask="url(#f2ajxgwx73v-item-d)" opacity=".499"/>
    </g>
    <g transform="translate(38 151)">
      <path fill="#58A8F7" d="M0,1.99508929 C0,0.893231902 0.897026226,0 2.00494659,0 L21.9950534,0 C23.1023548,0 24,0.892622799 24,1.99508929 L24,16.0049107 C24,17.1067681 23.1029738,18 21.9950534,18 L2.00494659,18 C0.897645164,18 0,17.1073772 0,16.0049107 L0,1.99508929 Z" opacity=".197"/>
      <mask id="f2ajxgwx73v-item-f" fill="#fff">
        <use xlink:href="#f2ajxgwx73v-item-e"/>
      </mask>
      <path fill="#58A8F7" d="M20.5714286,9.81818182 C25.2050919,9.81818182 28.0565771,13.3115424 32.5714286,18 C28.8882603,18 13.1203921,18 8.57142857,18 C12.4922207,14.1389173 15.9377652,9.81818182 20.5714286,9.81818182 Z" mask="url(#f2ajxgwx73v-item-f)" opacity=".197"/>
      <path fill="#0D87FF" d="M3.42857143,8.18181818 C8.31958315,8.18181818 11.9126984,12.8633949 16.2857143,18 C10.5479809,18 -3.34693878,18 -8.57142857,18 C-4.34737299,12.8633949 -1.4624403,8.18181818 3.42857143,8.18181818 Z" mask="url(#f2ajxgwx73v-item-f)" opacity=".198"/>
      <circle cx="12.857" cy="5.727" r="3" fill="#58A8F7" mask="url(#f2ajxgwx73v-item-f)" opacity=".499"/>
    </g>
    <g transform="translate(66 151)">
      <path fill="#58A8F7" d="M0,1.99508929 C0,0.893231902 0.897026226,0 2.00494659,0 L21.9950534,0 C23.1023548,0 24,0.892622799 24,1.99508929 L24,16.0049107 C24,17.1067681 23.1029738,18 21.9950534,18 L2.00494659,18 C0.897645164,18 0,17.1073772 0,16.0049107 L0,1.99508929 Z" opacity=".197"/>
      <mask id="f2ajxgwx73v-item-h" fill="#fff">
        <use xlink:href="#f2ajxgwx73v-item-g"/>
      </mask>
      <path fill="#58A8F7" d="M20.5714286,9.81818182 C25.2050919,9.81818182 28.0565771,13.3115424 32.5714286,18 C28.8882603,18 13.1203921,18 8.57142857,18 C12.4922207,14.1389173 15.9377652,9.81818182 20.5714286,9.81818182 Z" mask="url(#f2ajxgwx73v-item-h)" opacity=".197"/>
      <path fill="#0D87FF" d="M3.42857143,8.18181818 C8.31958315,8.18181818 11.9126984,12.8633949 16.2857143,18 C10.5479809,18 -3.34693878,18 -8.57142857,18 C-4.34737299,12.8633949 -1.4624403,8.18181818 3.42857143,8.18181818 Z" mask="url(#f2ajxgwx73v-item-h)" opacity=".198"/>
      <circle cx="12.857" cy="5.727" r="3" fill="#58A8F7" mask="url(#f2ajxgwx73v-item-h)" opacity=".499"/>
    </g>
    <g fill="#58A8F7" opacity=".499" transform="translate(100 26)">
      <polygon points="0 0 50 0 50 5 0 5"/>
      <polygon points="0 0 30 0 30 5 0 5" transform="translate(0 9)"/>
    </g>
    <polygon fill="#58A8F7" points="0 0 27 0 27 9 0 9" opacity=".499" transform="translate(100 50)"/>
    <g fill="#58A8F7" opacity=".197" transform="translate(100 99)">
      <polygon points="0 0 70 0 70 3 0 3" transform="translate(0 14)"/>
      <polygon points="0 0 70 0 70 3 0 3" transform="translate(0 7)"/>
      <polygon points="0 0 70 0 70 3 0 3"/>
      <polygon points="0 0 42 0 42 3 0 3" transform="translate(0 21)"/>
    </g>
    <circle cx="5" cy="5" r="5" fill="#58A8F7" opacity=".197" transform="translate(100 64)"/>
    <circle cx="5" cy="5" r="5" fill="#58A8F7" opacity=".197" transform="translate(114 64)"/>
    <circle cx="5" cy="5" r="5" fill="#58A8F7" opacity=".197" transform="translate(128 64)"/>
    <circle cx="5" cy="5" r="5" fill="#58A8F7" opacity=".197" transform="translate(142 64)"/>
    <g transform="translate(100 78)">
      <rect width="57" height="11" fill="#58A8F7" opacity=".499" rx="2"/>
      <rect width="55" height="9" x="1" y="1" fill="#FFF" rx="1"/>
      <polygon fill="#58A8F7" points="0 0 32 0 32 3 0 3" opacity=".197" transform="translate(4 4)"/>
      <polygon fill="#0D87FF" points="2.5 3 0 0 5 0" transform="translate(47 4)"/>
    </g>
    <path fill="#0D87FF" d="M0,1.99201702 C0,0.891856397 0.894337654,0 1.99821383,0 L29.0017862,0 C30.1053692,0 31,0.900176167 31,1.99201702 L31,9.00798298 C31,10.1081436 30.1056623,11 29.0017862,11 L1.99821383,11 C0.894630804,11 0,10.0998238 0,9.00798298 L0,1.99201702 Z" opacity=".499" transform="translate(100 130)"/>
    <path fill="#58A8F7" d="M0,3.00947762 C0,1.34738902 1.34537458,0 2.99263929,0 L177.007361,0 C178.66015,0 180,1.33663106 180,3.00947762 L180,16 L0,16 L0,3.00947762 Z" opacity=".197"/>
    <path fill="#0D87FF" d="M2.5,5 C1.11928813,5 0,3.88071187 0,2.5 C0,1.11928813 1.11928813,0 2.5,0 C3.88071187,0 5,1.11928813 5,2.5 C5,3.88071187 3.88071187,5 2.5,5 Z M10.5,5 C9.11928813,5 8,3.88071187 8,2.5 C8,1.11928813 9.11928813,0 10.5,0 C11.8807119,0 13,1.11928813 13,2.5 C13,3.88071187 11.8807119,5 10.5,5 Z M18.5,5 C17.1192881,5 16,3.88071187 16,2.5 C16,1.11928813 17.1192881,0 18.5,0 C19.8807119,0 21,1.11928813 21,2.5 C21,3.88071187 19.8807119,5 18.5,5 Z" opacity=".499" transform="translate(5 6)"/>
  </g>
</svg></g></g></g><rect x="-1" y="-1" rx="3" ry="3" width="182" height="230" fill="none" stroke="#A2CEF9" stroke-width="2"/><g transform="translate(0,206)"><g><text x="90" y="4" text-anchor="middle" font-family="Roboto,sans-serif" font-size="14px" fill="#52565f">New Page</text></g></g></g><g transform="translate(504, 288)"><path d="M31.5 28 L112 28 L192.5 28 C194.5 28 196 29.5 196 31.5 L196 64 L196 96.5 C196 98.5 194.5 100 192.5 100 L112 100 L31.5 100 C29.5 100 28 98.5 28 96.5 L28 64 L28 31.5 C28 29.5 29.5 28 31.5 28 Z" fill="#ffffff" stroke="#4d9ef6" stroke-width="2"/><g transform="translate(36, 34)"><text font-size="14" font-family="Roboto,sans-serif" x="76" y="35" text-anchor="middle" fill="#52565f">Welcome user</text></g></g><g transform="translate(0, 576)"><path d="M49.5 28 L112 28 L193 28 A3 3 0 0 1 195.5 31 L186.75 64 L177.5 98 A3 3 0 0 1 174.5 100 L112 100 L31 100 A3 3 0 0 1 28.5 97 L37.25 64 L46.5 30 A3 3 0 0 1 49.5 28 Z" fill="#FFFFFF" stroke="#848DEA" stroke-width="2"/><g transform="translate(43, 34)"><text font-size="14" font-family="Roboto,sans-serif" x="69" y="35" text-anchor="middle" fill="#52565F">Category</text></g></g><g transform="translate(504, 416)"><path d="M31.5 28 L112 28 L192.5 28 C194.5 28 196 29.5 196 31.5 L196 64 L196 96.5 C196 98.5 194.5 100 192.5 100 L112 100 L31.5 100 C29.5 100 28 98.5 28 96.5 L28 64 L28 31.5 C28 29.5 29.5 28 31.5 28 Z" fill="#ffffff" stroke="#4d9ef6" stroke-width="2"/><g transform="translate(36, 34)"><text font-size="14" font-family="Roboto,sans-serif" x="76" y="25" text-anchor="middle" fill="#52565f">row with drop down filter</text><text font-size="14" font-family="Roboto,sans-serif" x="76" y="45" text-anchor="middle" fill="#52565f">options</text></g></g><g transform="translate(224, 576)"><path d="M49.5 28 L112 28 L193 28 A3 3 0 0 1 195.5 31 L186.75 64 L177.5 98 A3 3 0 0 1 174.5 100 L112 100 L31 100 A3 3 0 0 1 28.5 97 L37.25 64 L46.5 30 A3 3 0 0 1 49.5 28 Z" fill="#ffffff" stroke="#848DEA" stroke-width="2"/><g transform="translate(43, 34)"><text font-size="14" font-family="Roboto,sans-serif" x="69" y="35" text-anchor="middle" fill="#52565f">mood</text></g></g><g transform="translate(448, 576)"><path d="M49.5 28 L112 28 L193 28 A3 3 0 0 1 195.5 31 L186.75 64 L177.5 98 A3 3 0 0 1 174.5 100 L112 100 L31 100 A3 3 0 0 1 28.5 97 L37.25 64 L46.5 30 A3 3 0 0 1 49.5 28 Z" fill="#ffffff" stroke="#848DEA" stroke-width="2"/><g transform="translate(43, 34)"><text font-size="14" font-family="Roboto,sans-serif" x="69" y="35" text-anchor="middle" fill="#52565f">season</text></g></g><g transform="translate(672, 576)"><path d="M49.5 28 L112 28 L193 28 A3 3 0 0 1 195.5 31 L186.75 64 L177.5 98 A3 3 0 0 1 174.5 100 L112 100 L31 100 A3 3 0 0 1 28.5 97 L37.25 64 L46.5 30 A3 3 0 0 1 49.5 28 Z" fill="#ffffff" stroke="#4d9ef6" stroke-width="2"/><g transform="translate(43, 34)"><text font-size="14" font-family="Roboto,sans-serif" x="69" y="35" text-anchor="middle" fill="#52565f">day/night</text></g></g><g transform="translate(896, 576)"><path d="M49.5 28 L112 28 L193 28 A3 3 0 0 1 195.5 31 L186.75 64 L177.5 98 A3 3 0 0 1 174.5 100 L112 100 L31 100 A3 3 0 0 1 28.5 97 L37.25 64 L46.5 30 A3 3 0 0 1 49.5 28 Z" fill="#ffffff" stroke="#4d9ef6" stroke-width="2"/><g transform="translate(43, 34)"><text font-size="14" font-family="Roboto,sans-serif" x="69" y="35" text-anchor="middle" fill="#52565f">style</text></g></g><g transform="translate(504, 768)"><path d="M31.5 28 L112 28 L192.5 28 C194.5 28 196 29.5 196 31.5 L196 64 L196 96.5 C196 98.5 194.5 100 192.5 100 L112 100 L31.5 100 C29.5 100 28 98.5 28 96.5 L28 64 L28 31.5 C28 29.5 29.5 28 31.5 28 Z" fill="#ffffff" stroke="#4d9ef6" stroke-width="2"/><g transform="translate(36, 34)"><text font-size="14" font-family="Roboto,sans-serif" x="76" y="35" text-anchor="middle" fill="#52565f">filter button</text></g></g><g transform="translate(504, 928)"><path d="M31.5 28 L112 28 L192.5 28 C194.5 28 196 29.5 196 31.5 L196 64 L196 96.5 C196 98.5 194.5 100 192.5 100 L112 100 L31.5 100 C29.5 100 28 98.5 28 96.5 L28 64 L28 31.5 C28 29.5 29.5 28 31.5 28 Z" fill="#ffffff" stroke="#4d9ef6" stroke-width="2"/><g transform="translate(36, 34)"><text font-size="14" font-family="Roboto,sans-serif" x="76" y="25" text-anchor="middle" fill="#52565f">List with all perfumes that</text><text font-size="14" font-family="Roboto,sans-serif" x="76" y="45" text-anchor="middle" fill="#52565f">fit criteriums</text></g></g><g transform="translate(840, 1184)"><path d="M50 28 L175 28 A3 3 0 0 1 178 29.721999999999998 L195.5 62.4088 Q196.5 64 195.5 65.584 L178 98.27799999999999 A3 3 0 0 1 175 100 L49 100 A3 3 0 0 1 46 98.27799999999999 L28.5 65.584 Q27.5 64 28.5 62.4088 L46 29.721999999999998 A3 3 0 0 1 49 28 Z" fill="#ffffff" stroke="#4d9ef6" stroke-width="2"/><g transform="translate(46, 34)"><text font-size="14" font-family="Roboto,sans-serif" x="66" y="35" text-anchor="middle" fill="#52565f">description</text></g></g><g transform="translate(840, 1056)"><path d="M32 28 L112 28 L193 28 A3 3 0 0 1 195.5 31.856 L186.75 64 L177.5 98 A3 3 0 0 1 174.5 100 L49.5 100 A3 3 0 0 1 46.5 98 L37.25 64 L28.5 31.856 A3 3 0 0 1 31 28 Z" fill="#ffffff" stroke="#4d9ef6" stroke-width="2"/><g transform="translate(43, 34)"><text font-size="14" font-family="Roboto,sans-serif" x="69" y="35" text-anchor="middle" fill="#52565f">image</text></g></g><g transform="translate(0, 1056)"><path d="M49.5 28 L112 28 L193 28 A3 3 0 0 1 195.5 31 L186.75 64 L177.5 98 A3 3 0 0 1 174.5 100 L112 100 L31 100 A3 3 0 0 1 28.5 97 L37.25 64 L46.5 30 A3 3 0 0 1 49.5 28 Z" fill="#ffffff" stroke="#4d9ef6" stroke-width="2"/><g transform="translate(43, 34)"><text font-size="14" font-family="Roboto,sans-serif" x="69" y="35" text-anchor="middle" fill="#52565f">name</text></g></g><g transform="translate(224, 1056)"><path d="M49.5 28 L112 28 L193 28 A3 3 0 0 1 195.5 31 L186.75 64 L177.5 98 A3 3 0 0 1 174.5 100 L112 100 L31 100 A3 3 0 0 1 28.5 97 L37.25 64 L46.5 30 A3 3 0 0 1 49.5 28 Z" fill="#ffffff" stroke="#4d9ef6" stroke-width="2"/><g transform="translate(43, 34)"><text font-size="14" font-family="Roboto,sans-serif" x="69" y="35" text-anchor="middle" fill="#52565f">brand</text></g></g><g transform="translate(448, 1056)"><path d="M49.5 28 L112 28 L193 28 A3 3 0 0 1 195.5 31 L186.75 64 L177.5 98 A3 3 0 0 1 174.5 100 L112 100 L31 100 A3 3 0 0 1 28.5 97 L37.25 64 L46.5 30 A3 3 0 0 1 49.5 28 Z" fill="#ffffff" stroke="#4d9ef6" stroke-width="2"/><g transform="translate(43, 34)"><text font-size="14" font-family="Roboto,sans-serif" x="69" y="35" text-anchor="middle" fill="#52565f">gender</text></g></g></g><g><g><path fill="none" stroke="#4d9ef6" stroke-width="2" stroke-dasharray="0px 0px" d="M 616,244L 616,256L 616,288L 616,313"/><path transform="translate( 619, 246 ) rotate( 180 )" d="M3 6C4.65685 6 6 4.65685 6 3C6 1.34315 4.65685 0 3 0C1.34315 0 0 1.34315 0 3C0 4.65685 1.34315 6 3 6Z" fill="#4d9ef6"/><path transform="translate( 623, 315 ) rotate( 540 )" d="M6.34003 0.275664C6.70452 -0.0918881 7.29548 -0.0918881 7.65997 0.275664L13.7266 6.39331C14.0911 6.76086 14.0911 7.35678 13.7266 7.72434C13.3621 8.09189 12.7712 8.09189 12.4067 7.72434L7 2.2722L1.5933 7.72434C1.22881 8.09189 0.637856 8.09189 0.273367 7.72434C-0.0911224 7.35678 -0.0911224 6.76086 0.273367 6.39331L6.34003 0.275664Z" fill="#4d9ef6"/></g><g><path fill="none" stroke="#4d9ef6" stroke-width="2" stroke-dasharray="0px 0px" d="M 616,389L 616,416L 616,416L 616,441"/><path transform="translate( 619, 391 ) rotate( 180 )" d="M3 6C4.65685 6 6 4.65685 6 3C6 1.34315 4.65685 0 3 0C1.34315 0 0 1.34315 0 3C0 4.65685 1.34315 6 3 6Z" fill="#4d9ef6"/><path transform="translate( 623, 443 ) rotate( 540 )" d="M6.34003 0.275664C6.70452 -0.0918881 7.29548 -0.0918881 7.65997 0.275664L13.7266 6.39331C14.0911 6.76086 14.0911 7.35678 13.7266 7.72434C13.3621 8.09189 12.7712 8.09189 12.4067 7.72434L7 2.2722L1.5933 7.72434C1.22881 8.09189 0.637856 8.09189 0.273367 7.72434C-0.0911224 7.35678 -0.0911224 6.76086 0.273367 6.39331L6.34003 0.275664Z" fill="#4d9ef6"/></g><g><path fill="none" stroke="#4d9ef6" stroke-width="2" stroke-dasharray="0px 0px" d="M 112,677L 112,704L 112,758Q112,768 122,768L 606,768Q616,768 616,778L 616,793"/><path transform="translate( 115, 679 ) rotate( 180 )" d="M3 6C4.65685 6 6 4.65685 6 3C6 1.34315 4.65685 0 3 0C1.34315 0 0 1.34315 0 3C0 4.65685 1.34315 6 3 6Z" fill="#4d9ef6"/><path transform="translate( 623, 795 ) rotate( 540 )" d="M6.34003 0.275664C6.70452 -0.0918881 7.29548 -0.0918881 7.65997 0.275664L13.7266 6.39331C14.0911 6.76086 14.0911 7.35678 13.7266 7.72434C13.3621 8.09189 12.7712 8.09189 12.4067 7.72434L7 2.2722L1.5933 7.72434C1.22881 8.09189 0.637856 8.09189 0.273367 7.72434C-0.0911224 7.35678 -0.0911224 6.76086 0.273367 6.39331L6.34003 0.275664Z" fill="#4d9ef6"/></g><g><path fill="none" stroke="#4d9ef6" stroke-width="2" stroke-dasharray="0px 0px" d="M 616,517L 616,544L 616,566Q616,576 606,576L 122,576Q112,576 112,586L 112,601"/><path transform="translate( 619, 519 ) rotate( 180 )" d="M3 6C4.65685 6 6 4.65685 6 3C6 1.34315 4.65685 0 3 0C1.34315 0 0 1.34315 0 3C0 4.65685 1.34315 6 3 6Z" fill="#4d9ef6"/><path transform="translate( 119, 603 ) rotate( 540 )" d="M6.34003 0.275664C6.70452 -0.0918881 7.29548 -0.0918881 7.65997 0.275664L13.7266 6.39331C14.0911 6.76086 14.0911 7.35678 13.7266 7.72434C13.3621 8.09189 12.7712 8.09189 12.4067 7.72434L7 2.2722L1.5933 7.72434C1.22881 8.09189 0.637856 8.09189 0.273367 7.72434C-0.0911224 7.35678 -0.0911224 6.76086 0.273367 6.39331L6.34003 0.275664Z" fill="#4d9ef6"/></g><g><path fill="none" stroke="#4d9ef6" stroke-width="2" stroke-dasharray="0px 0px" d="M 616,517L 616,544L 616,566Q616,576 606,576L 346,576Q336,576 336,586L 336,601"/><path transform="translate( 619, 519 ) rotate( 180 )" d="M3 6C4.65685 6 6 4.65685 6 3C6 1.34315 4.65685 0 3 0C1.34315 0 0 1.34315 0 3C0 4.65685 1.34315 6 3 6Z" fill="#4d9ef6"/><path transform="translate( 343, 603 ) rotate( 540 )" d="M6.34003 0.275664C6.70452 -0.0918881 7.29548 -0.0918881 7.65997 0.275664L13.7266 6.39331C14.0911 6.76086 14.0911 7.35678 13.7266 7.72434C13.3621 8.09189 12.7712 8.09189 12.4067 7.72434L7 2.2722L1.5933 7.72434C1.22881 8.09189 0.637856 8.09189 0.273367 7.72434C-0.0911224 7.35678 -0.0911224 6.76086 0.273367 6.39331L6.34003 0.275664Z" fill="#4d9ef6"/></g><g><path fill="none" stroke="#4d9ef6" stroke-width="2" stroke-dasharray="0px 0px" d="M 616,517L 616,544L 616,566Q616,576 606,576L 570,576Q560,576 560,586L 560,601"/><path transform="translate( 619, 519 ) rotate( 180 )" d="M3 6C4.65685 6 6 4.65685 6 3C6 1.34315 4.65685 0 3 0C1.34315 0 0 1.34315 0 3C0 4.65685 1.34315 6 3 6Z" fill="#4d9ef6"/><path transform="translate( 567, 603 ) rotate( 540 )" d="M6.34003 0.275664C6.70452 -0.0918881 7.29548 -0.0918881 7.65997 0.275664L13.7266 6.39331C14.0911 6.76086 14.0911 7.35678 13.7266 7.72434C13.3621 8.09189 12.7712 8.09189 12.4067 7.72434L7 2.2722L1.5933 7.72434C1.22881 8.09189 0.637856 8.09189 0.273367 7.72434C-0.0911224 7.35678 -0.0911224 6.76086 0.273367 6.39331L6.34003 0.275664Z" fill="#4d9ef6"/></g><g><path fill="none" stroke="#4d9ef6" stroke-width="2" stroke-dasharray="0px 0px" d="M 616,517L 616,544L 616,566Q616,576 626,576L 774,576Q784,576 784,586L 784,601"/><path transform="translate( 619, 519 ) rotate( 180 )" d="M3 6C4.65685 6 6 4.65685 6 3C6 1.34315 4.65685 0 3 0C1.34315 0 0 1.34315 0 3C0 4.65685 1.34315 6 3 6Z" fill="#4d9ef6"/><path transform="translate( 791, 603 ) rotate( 540 )" d="M6.34003 0.275664C6.70452 -0.0918881 7.29548 -0.0918881 7.65997 0.275664L13.7266 6.39331C14.0911 6.76086 14.0911 7.35678 13.7266 7.72434C13.3621 8.09189 12.7712 8.09189 12.4067 7.72434L7 2.2722L1.5933 7.72434C1.22881 8.09189 0.637856 8.09189 0.273367 7.72434C-0.0911224 7.35678 -0.0911224 6.76086 0.273367 6.39331L6.34003 0.275664Z" fill="#4d9ef6"/></g><g><path fill="none" stroke="#4d9ef6" stroke-width="2" stroke-dasharray="0px 0px" d="M 616,517L 616,544L 616,566Q616,576 626,576L 998,576Q1008,576 1008,586L 1008,601"/><path transform="translate( 619, 519 ) rotate( 180 )" d="M3 6C4.65685 6 6 4.65685 6 3C6 1.34315 4.65685 0 3 0C1.34315 0 0 1.34315 0 3C0 4.65685 1.34315 6 3 6Z" fill="#4d9ef6"/><path transform="translate( 1015, 603 ) rotate( 540 )" d="M6.34003 0.275664C6.70452 -0.0918881 7.29548 -0.0918881 7.65997 0.275664L13.7266 6.39331C14.0911 6.76086 14.0911 7.35678 13.7266 7.72434C13.3621 8.09189 12.7712 8.09189 12.4067 7.72434L7 2.2722L1.5933 7.72434C1.22881 8.09189 0.637856 8.09189 0.273367 7.72434C-0.0911224 7.35678 -0.0911224 6.76086 0.273367 6.39331L6.34003 0.275664Z" fill="#4d9ef6"/></g><g><path fill="none" stroke="#4d9ef6" stroke-width="2" stroke-dasharray="0px 0px" d="M 336,677L 336,704L 336,758Q336,768 346,768L 606,768Q616,768 616,778L 616,793"/><path transform="translate( 339, 679 ) rotate( 180 )" d="M3 6C4.65685 6 6 4.65685 6 3C6 1.34315 4.65685 0 3 0C1.34315 0 0 1.34315 0 3C0 4.65685 1.34315 6 3 6Z" fill="#4d9ef6"/><path transform="translate( 623, 795 ) rotate( 540 )" d="M6.34003 0.275664C6.70452 -0.0918881 7.29548 -0.0918881 7.65997 0.275664L13.7266 6.39331C14.0911 6.76086 14.0911 7.35678 13.7266 7.72434C13.3621 8.09189 12.7712 8.09189 12.4067 7.72434L7 2.2722L1.5933 7.72434C1.22881 8.09189 0.637856 8.09189 0.273367 7.72434C-0.0911224 7.35678 -0.0911224 6.76086 0.273367 6.39331L6.34003 0.275664Z" fill="#4d9ef6"/></g><g><path fill="none" stroke="#4d9ef6" stroke-width="2" stroke-dasharray="0px 0px" d="M 560,677L 560,704L 560,758Q560,768 570,768L 606,768Q616,768 616,778L 616,793"/><path transform="translate( 563, 679 ) rotate( 180 )" d="M3 6C4.65685 6 6 4.65685 6 3C6 1.34315 4.65685 0 3 0C1.34315 0 0 1.34315 0 3C0 4.65685 1.34315 6 3 6Z" fill="#4d9ef6"/><path transform="translate( 623, 795 ) rotate( 540 )" d="M6.34003 0.275664C6.70452 -0.0918881 7.29548 -0.0918881 7.65997 0.275664L13.7266 6.39331C14.0911 6.76086 14.0911 7.35678 13.7266 7.72434C13.3621 8.09189 12.7712 8.09189 12.4067 7.72434L7 2.2722L1.5933 7.72434C1.22881 8.09189 0.637856 8.09189 0.273367 7.72434C-0.0911224 7.35678 -0.0911224 6.76086 0.273367 6.39331L6.34003 0.275664Z" fill="#4d9ef6"/></g><g><path fill="none" stroke="#4d9ef6" stroke-width="2" stroke-dasharray="0px 0px" d="M 784,677L 784,704L 784,758Q784,768 774,768L 626,768Q616,768 616,778L 616,793"/><path transform="translate( 787, 679 ) rotate( 180 )" d="M3 6C4.65685 6 6 4.65685 6 3C6 1.34315 4.65685 0 3 0C1.34315 0 0 1.34315 0 3C0 4.65685 1.34315 6 3 6Z" fill="#4d9ef6"/><path transform="translate( 623, 795 ) rotate( 540 )" d="M6.34003 0.275664C6.70452 -0.0918881 7.29548 -0.0918881 7.65997 0.275664L13.7266 6.39331C14.0911 6.76086 14.0911 7.35678 13.7266 7.72434C13.3621 8.09189 12.7712 8.09189 12.4067 7.72434L7 2.2722L1.5933 7.72434C1.22881 8.09189 0.637856 8.09189 0.273367 7.72434C-0.0911224 7.35678 -0.0911224 6.76086 0.273367 6.39331L6.34003 0.275664Z" fill="#4d9ef6"/></g><g><path fill="none" stroke="#4d9ef6" stroke-width="2" stroke-dasharray="0px 0px" d="M 1008,677L 1008,704L 1008,758Q1008,768 998,768L 626,768Q616,768 616,778L 616,793"/><path transform="translate( 1011, 679 ) rotate( 180 )" d="M3 6C4.65685 6 6 4.65685 6 3C6 1.34315 4.65685 0 3 0C1.34315 0 0 1.34315 0 3C0 4.65685 1.34315 6 3 6Z" fill="#4d9ef6"/><path transform="translate( 623, 795 ) rotate( 540 )" d="M6.34003 0.275664C6.70452 -0.0918881 7.29548 -0.0918881 7.65997 0.275664L13.7266 6.39331C14.0911 6.76086 14.0911 7.35678 13.7266 7.72434C13.3621 8.09189 12.7712 8.09189 12.4067 7.72434L7 2.2722L1.5933 7.72434C1.22881 8.09189 0.637856 8.09189 0.273367 7.72434C-0.0911224 7.35678 -0.0911224 6.76086 0.273367 6.39331L6.34003 0.275664Z" fill="#4d9ef6"/></g><g><path fill="none" stroke="#4d9ef6" stroke-width="2" stroke-dasharray="0px 0px" d="M 616,869L 616,896L 616,928L 616,953"/><path transform="translate( 619, 871 ) rotate( 180 )" d="M3 6C4.65685 6 6 4.65685 6 3C6 1.34315 4.65685 0 3 0C1.34315 0 0 1.34315 0 3C0 4.65685 1.34315 6 3 6Z" fill="#4d9ef6"/><path transform="translate( 623, 955 ) rotate( 540 )" d="M6.34003 0.275664C6.70452 -0.0918881 7.29548 -0.0918881 7.65997 0.275664L13.7266 6.39331C14.0911 6.76086 14.0911 7.35678 13.7266 7.72434C13.3621 8.09189 12.7712 8.09189 12.4067 7.72434L7 2.2722L1.5933 7.72434C1.22881 8.09189 0.637856 8.09189 0.273367 7.72434C-0.0911224 7.35678 -0.0911224 6.76086 0.273367 6.39331L6.34003 0.275664Z" fill="#4d9ef6"/></g><g><path fill="none" stroke="#4d9ef6" stroke-width="2" stroke-dasharray="0px 0px" d="M 701,992L 728,992L 886,992Q896,992 896,982L 896,938Q896,928 906,928L 914,928"/><path transform="translate( 703, 989 ) rotate( 450 )" d="M3 6C4.65685 6 6 4.65685 6 3C6 1.34315 4.65685 0 3 0C1.34315 0 0 1.34315 0 3C0 4.65685 1.34315 6 3 6Z" fill="#4d9ef6"/><path transform="translate( 916, 921 ) rotate( 450 )" d="M6.34003 0.275664C6.70452 -0.0918881 7.29548 -0.0918881 7.65997 0.275664L13.7266 6.39331C14.0911 6.76086 14.0911 7.35678 13.7266 7.72434C13.3621 8.09189 12.7712 8.09189 12.4067 7.72434L7 2.2722L1.5933 7.72434C1.22881 8.09189 0.637856 8.09189 0.273367 7.72434C-0.0911224 7.35678 -0.0911224 6.76086 0.273367 6.39331L6.34003 0.275664Z" fill="#4d9ef6"/></g><g><path fill="none" stroke="#4d9ef6" stroke-width="2" stroke-dasharray="0px 0px" d="M 531,992L 504,992L 122,992Q112,992 112,1002L 112,1056L 112,1081"/><path transform="translate( 529, 995 ) rotate( 270 )" d="M3 6C4.65685 6 6 4.65685 6 3C6 1.34315 4.65685 0 3 0C1.34315 0 0 1.34315 0 3C0 4.65685 1.34315 6 3 6Z" fill="#4d9ef6"/><path transform="translate( 119, 1083 ) rotate( 540 )" d="M6.34003 0.275664C6.70452 -0.0918881 7.29548 -0.0918881 7.65997 0.275664L13.7266 6.39331C14.0911 6.76086 14.0911 7.35678 13.7266 7.72434C13.3621 8.09189 12.7712 8.09189 12.4067 7.72434L7 2.2722L1.5933 7.72434C1.22881 8.09189 0.637856 8.09189 0.273367 7.72434C-0.0911224 7.35678 -0.0911224 6.76086 0.273367 6.39331L6.34003 0.275664Z" fill="#4d9ef6"/></g><g><path fill="none" stroke="#4d9ef6" stroke-width="2" stroke-dasharray="0px 0px" d="M 616,1029L 616,1046Q616,1056 606,1056L 570,1056Q560,1056 560,1066L 560,1081"/><path transform="translate( 619, 1031 ) rotate( 180 )" d="M3 6C4.65685 6 6 4.65685 6 3C6 1.34315 4.65685 0 3 0C1.34315 0 0 1.34315 0 3C0 4.65685 1.34315 6 3 6Z" fill="#4d9ef6"/><path transform="translate( 567, 1083 ) rotate( 540 )" d="M6.34003 0.275664C6.70452 -0.0918881 7.29548 -0.0918881 7.65997 0.275664L13.7266 6.39331C14.0911 6.76086 14.0911 7.35678 13.7266 7.72434C13.3621 8.09189 12.7712 8.09189 12.4067 7.72434L7 2.2722L1.5933 7.72434C1.22881 8.09189 0.637856 8.09189 0.273367 7.72434C-0.0911224 7.35678 -0.0911224 6.76086 0.273367 6.39331L6.34003 0.275664Z" fill="#4d9ef6"/></g><g><path fill="none" stroke="#4d9ef6" stroke-width="2" stroke-dasharray="0px 0px" d="M 531,992L 504,992L 346,992Q336,992 336,1002L 336,1056L 336,1081"/><path transform="translate( 529, 995 ) rotate( 270 )" d="M3 6C4.65685 6 6 4.65685 6 3C6 1.34315 4.65685 0 3 0C1.34315 0 0 1.34315 0 3C0 4.65685 1.34315 6 3 6Z" fill="#4d9ef6"/><path transform="translate( 343, 1083 ) rotate( 540 )" d="M6.34003 0.275664C6.70452 -0.0918881 7.29548 -0.0918881 7.65997 0.275664L13.7266 6.39331C14.0911 6.76086 14.0911 7.35678 13.7266 7.72434C13.3621 8.09189 12.7712 8.09189 12.4067 7.72434L7 2.2722L1.5933 7.72434C1.22881 8.09189 0.637856 8.09189 0.273367 7.72434C-0.0911224 7.35678 -0.0911224 6.76086 0.273367 6.39331L6.34003 0.275664Z" fill="#4d9ef6"/></g><g><path fill="none" stroke="#4d9ef6" stroke-width="2" stroke-dasharray="0px 0px" d="M 952,1157L 952,1184L 952,1184L 952,1209"/><path transform="translate( 955, 1159 ) rotate( 180 )" d="M3 6C4.65685 6 6 4.65685 6 3C6 1.34315 4.65685 0 3 0C1.34315 0 0 1.34315 0 3C0 4.65685 1.34315 6 3 6Z" fill="#4d9ef6"/><path transform="translate( 959, 1211 ) rotate( 540 )" d="M6.34003 0.275664C6.70452 -0.0918881 7.29548 -0.0918881 7.65997 0.275664L13.7266 6.39331C14.0911 6.76086 14.0911 7.35678 13.7266 7.72434C13.3621 8.09189 12.7712 8.09189 12.4067 7.72434L7 2.2722L1.5933 7.72434C1.22881 8.09189 0.637856 8.09189 0.273367 7.72434C-0.0911224 7.35678 -0.0911224 6.76086 0.273367 6.39331L6.34003 0.275664Z" fill="#4d9ef6"/></g><g><path fill="none" stroke="#4d9ef6" stroke-width="2" stroke-dasharray="0px 0px" d="M 1008,1044L 1008,1046Q1008,1056 998,1056L 962,1056Q952,1056 952,1066L 952,1081"/><path transform="translate( 1011, 1046 ) rotate( 180 )" d="M3 6C4.65685 6 6 4.65685 6 3C6 1.34315 4.65685 0 3 0C1.34315 0 0 1.34315 0 3C0 4.65685 1.34315 6 3 6Z" fill="#4d9ef6"/><path transform="translate( 959, 1083 ) rotate( 540 )" d="M6.34003 0.275664C6.70452 -0.0918881 7.29548 -0.0918881 7.65997 0.275664L13.7266 6.39331C14.0911 6.76086 14.0911 7.35678 13.7266 7.72434C13.3621 8.09189 12.7712 8.09189 12.4067 7.72434L7 2.2722L1.5933 7.72434C1.22881 8.09189 0.637856 8.09189 0.273367 7.72434C-0.0911224 7.35678 -0.0911224 6.76086 0.273367 6.39331L6.34003 0.275664Z" fill="#4d9ef6"/></g></g></g></g></svg>